<?xml version="1.0" encoding="UTF-8" standalone="no"?>
<!-- Generated by IcoMoon.io -->

<svg
   xmlns:dc="http://purl.org/dc/elements/1.1/"
   xmlns:cc="http://creativecommons.org/ns#"
   xmlns:rdf="http://www.w3.org/1999/02/22-rdf-syntax-ns#"
   xmlns:svg="http://www.w3.org/2000/svg"
   xmlns="http://www.w3.org/2000/svg"
   xmlns:sodipodi="http://sodipodi.sourceforge.net/DTD/sodipodi-0.dtd"
   xmlns:inkscape="http://www.inkscape.org/namespaces/inkscape"
   version="1.1"
   width="40"
   height="40"
   viewBox="0 0 40 40"
   id="svg6"
   sodipodi:docname="lnr-cross-circle.svg"
   inkscape:version="0.92.1 r">
  <metadata
     id="metadata12">
    <rdf:RDF>
      <cc:Work
         rdf:about="">
        <dc:format>image/svg+xml</dc:format>
        <dc:type
           rdf:resource="http://purl.org/dc/dcmitype/StillImage" />
        <dc:title></dc:title>
      </cc:Work>
    </rdf:RDF>
  </metadata>
  <defs
     id="defs10" />
  <sodipodi:namedview
     pagecolor="#ffffff"
     bordercolor="#666666"
     borderopacity="1"
     objecttolerance="10"
     gridtolerance="10"
     guidetolerance="10"
     inkscape:pageopacity="0"
     inkscape:pageshadow="2"
     inkscape:window-width="1735"
     inkscape:window-height="1063"
     id="namedview8"
     showgrid="false"
     inkscape:zoom="11.8"
     inkscape:cx="10"
     inkscape:cy="10"
     inkscape:window-x="602"
     inkscape:window-y="61"
     inkscape:window-maximized="0"
     inkscape:current-layer="svg6"
     fit-margin-top="0"
     fit-margin-left="0"
     fit-margin-right="0"
     fit-margin-bottom="0" />
  <path
     d="m 30.227059,27.680843 -8.556718,-7.604572 8.556718,-7.604573 c 0.432029,-0.383794 0.471877,-1.046521 0.08808,-1.480647 -0.383794,-0.434128 -1.04652,-0.471878 -1.480647,-0.08808 l -8.741275,7.770254 -8.741274,-7.770254 c -0.43203,-0.383794 -1.094756,-0.346044 -1.4806472,0.08808 -0.3858911,0.434126 -0.3460437,1.094755 0.088084,1.480647 l 8.5567182,7.604573 -8.556717,7.604572 c -0.4320303,0.383794 -0.4718778,1.046521 -0.088084,1.480647 0.207626,0.232794 0.494947,0.352336 0.784366,0.352336 0.247473,0 0.497044,-0.08808 0.696281,-0.264251 l 8.741274,-7.770255 8.741275,7.770255 c 0.199237,0.178265 0.448808,0.264251 0.696281,0.264251 0.289418,0 0.576739,-0.119542 0.784366,-0.352336 0.383794,-0.432029 0.346044,-1.094755 -0.08808,-1.480647 z"
     id="path2"
     style="fill:#efd700;fill-opacity:0.81679392;stroke-width:0.3;stroke-miterlimit:4;stroke-dasharray:none;stroke:#000000;stroke-opacity:1"
     inkscape:connector-curvature="0" />
  <path
     d="m 20.09322,39.999999 c -5.32278,0 -10.3246856,-2.072068 -14.0892217,-5.834507 C 2.2394621,30.403053 0.16949153,25.399053 0.16949153,20.078367 0.16949153,14.755586 2.2415594,9.7536807 6.0039983,5.9891453 9.7664371,2.2246089 14.77044,0.15254092 20.09322,0.15254092 c 5.322781,0 10.324686,2.07206798 14.089222,5.83660438 3.764537,3.7645354 5.834507,8.7664407 5.834507,14.0892217 0,5.322782 -2.072068,10.324686 -5.834507,14.087125 -3.762439,3.762439 -8.766441,5.834507 -14.089222,5.834507 z m 0,-37.7502238 c -9.829738,0 -17.8264938,7.9967568 -17.8264938,17.8264958 0,9.829738 7.9967558,17.826494 17.8264938,17.826494 9.829739,0 17.826495,-7.996756 17.826495,-17.826494 0,-9.829739 -7.996756,-17.8264958 -17.826495,-17.8264958 z"
     id="path4"
     style="fill:#efd700;fill-opacity:0.81679392;stroke-width:0.3;stroke-miterlimit:4;stroke-dasharray:none;stroke:#000000;stroke-opacity:1"
     inkscape:connector-curvature="0" />
</svg>
